<svg width="1000" height="1000" viewBox="0 0 1000 1000" xmlns="http://www.w3.org/2000/svg"><defs/><path d="M 0 0 L 1000 0 L 1000 1000 L 0 1000 Z"/><path fill="#ffffff" transform="matrix(0.6486338649708144 0 0 0.6486338649708144 1.7568306751459284 76.14005440270245)" d="M 495.54676163343 430.36564292688 C 493.84676163343 428.46564292688 492.84676163343 427.46564292688 492.84676163343 427.46564292688 L 228.54676163343 427.46564292688 L 427.84676163343 626.76564292688 L 454.54676163343 653.46564292688 L 454.54676163343 653.46564292688 C 557.04676163343 522.96564292688 510.84676163343 448.86564292688 495.54676163343 430.36564292688 Z"/><g opacity="0.3" transform="matrix(0.6486338649708144 0 0 0.6486338649708144 1.7568306751459284 76.14005440270245)"><path d="M 495.54676163343 430.36564292688 C 493.84676163343 428.46564292688 492.84676163343 427.46564292688 492.84676163343 427.46564292688 C 492.84676163343 427.46564292688 518.04676163343 505.26564292688 427.94676163343 626.76564292688 L 454.64676163343 653.46564292688 L 454.64676163343 653.46564292688 C 557.04676163343 522.96564292688 510.84676163343 448.86564292688 495.54676163343 430.36564292688 Z"/></g><path fill="#777777" transform="matrix(0.6486338649708144 0 0 0.6486338649708144 1.7568306751459284 76.14005440270245)" d="M 613.44676163343 548.76564292688 L 492.94676163343 427.36564292688 C 493.64676163343 428.06564292688 494.54676163343 429.06564292688 495.54676163343 430.26564292688 C 510.84676163343 448.76564292688 557.04676163343 522.86564292688 454.64676163343 653.36564292688 L 454.64676163343 653.36564292688 L 228.54676163343 879.56564292688 L 492.94676163343 879.56564292688 L 718.54676163343 653.06564292688 L 613.44676163343 548.76564292688 Z"/><path id="text" fill="#ffffff" transform="matrix(2.1761650770106415 0 0 2.1761650770106415 379.5153417616723 186.28817530485173)" d="M 88.998974613 110.46210087628 L 88.998974613 177.85410087628 L 72.582974613 177.85410087628 L 72.582974613 110.46210087628 L 88.998974613 110.46210087628 Z M 117.318974613 123.61410087628 L 117.318974613 137.24610087628 L 139.302974613 137.24610087628 L 139.302974613 149.91810087628 L 117.318974613 149.91810087628 L 117.318974613 164.70210087628 L 142.182974613 164.70210087628 L 142.182974613 177.85410087628 L 100.902974613 177.85410087628 L 100.902974613 110.46210087628 L 142.182974613 110.46210087628 L 142.182974613 123.61410087628 L 117.318974613 123.61410087628 Z M 194.790974613 165.95010087628 L 169.638974613 165.95010087628 L 165.606974613 177.85410087628 L 148.422974613 177.85410087628 L 172.806974613 110.46210087628 L 191.814974613 110.46210087628 L 216.198974613 177.85410087628 L 198.822974613 177.85410087628 L 194.790974613 165.95010087628 Z M 190.566974613 153.27810087628 L 182.214974613 128.60610087628 L 173.958974613 153.27810087628 L 190.566974613 153.27810087628 Z"/></svg>